<svg id="Layer_1" data-name="Layer 1" xmlns="http://www.w3.org/2000/svg" viewBox="0 0 100 100"><defs><style>.cls-1{fill:#fff;}</style></defs><title>edm-icons</title><path class="cls-1" d="M20.83,80.39A4.15,4.15,0,0,0,25,84.54h7.63a4.15,4.15,0,0,0,4.16-4.15v-6H20.83Z"/><path class="cls-1" d="M62.79,80.39a4.15,4.15,0,0,0,4.15,4.15h7.63a4.15,4.15,0,0,0,4.16-4.15v-6H62.79Z"/><path class="cls-1" d="M85.83,30.62H80.71A1.34,1.34,0,0,0,79.37,32v5.55H77.14V29.85c0-7.38-5.58-12.16-13.36-13.36a93.51,93.51,0,0,0-27.61,0c-8.8,1.52-13.36,6-13.36,13.36v7.66H20.25V32a1.34,1.34,0,0,0-1.34-1.34H13.79A1.33,1.33,0,0,0,12.46,32v9a1.33,1.33,0,0,0,1.33,1.34h5.12A1.34,1.34,0,0,0,20.25,41v0h2.56V56.7a2.67,2.67,0,0,0-2,2.58v8.38a.13.13,0,0,0,0,.06h0v4.2H78.73V68.36a2.75,2.75,0,0,0,.1-.7V59.28a2.66,2.66,0,0,0-1.69-2.48V41h2.23v0a1.34,1.34,0,0,0,1.34,1.34h5.12A1.34,1.34,0,0,0,87.17,41V32A1.34,1.34,0,0,0,85.83,30.62ZM74.9,30.36V38.5A2.93,2.93,0,0,1,72,41.43H69a6.92,6.92,0,0,0-13.77,0H51.36v-14H72A2.93,2.93,0,0,1,74.9,30.36ZM76,63a3.57,3.57,0,1,1-3.57-3.57A3.57,3.57,0,0,1,76,63ZM27.41,59.46A3.58,3.58,0,1,1,23.84,63,3.57,3.57,0,0,1,27.41,59.46ZM66.76,45.19a4.75,4.75,0,0,1,4.75,4.74v.66a5.9,5.9,0,0,0-4.87-2.75H33.69a5.89,5.89,0,0,0-4.86,2.75v-.66a4.74,4.74,0,0,1,4.74-4.74Zm-9.12-3Zm.06-.73a4.42,4.42,0,0,1,8.73,0ZM35.39,57.21h29.4a1.25,1.25,0,0,1,0,2.5H35.39a1.25,1.25,0,0,1,0-2.5Zm-1.25-3.65a1.25,1.25,0,0,1,1.25-1.25h29.4a1.25,1.25,0,0,1,0,2.5H35.39A1.25,1.25,0,0,1,34.14,53.56Zm1.25,8.78h29.4a1.25,1.25,0,0,1,0,2.49H35.39a1.25,1.25,0,1,1,0-2.49ZM69.25,20.5a2.58,2.58,0,1,1-2.57,2.57A2.57,2.57,0,0,1,69.25,20.5Zm-6,0a2.58,2.58,0,1,1-2.57,2.57A2.58,2.58,0,0,1,63.21,20.5ZM37,20.5a2.58,2.58,0,1,1-2.58,2.57A2.57,2.57,0,0,1,37,20.5Zm-6,0a2.58,2.58,0,1,1-2.57,2.57A2.57,2.57,0,0,1,30.92,20.5Zm-5.87,9.86A2.92,2.92,0,0,1,28,27.44H48.86v14H28a2.93,2.93,0,0,1-2.92-2.93Z"/></svg>