<svg id="Layer_1" data-name="Layer 1" xmlns="http://www.w3.org/2000/svg" viewBox="0 0 100 100"><defs><style>.cls-1{fill:#fff;}</style></defs><title>edm-icons</title><path class="cls-1" d="M94.8,26.56a1.84,1.84,0,0,0-.27.57.34.34,0,0,1-.38.21c-.23,0-.1.4-.13.61s-.37.33-.37.33a1.29,1.29,0,0,0-.07-.37c0-.2-.14.07-.41.21s-.13.57-.24.74-.23-.54-.23-.54a.7.7,0,0,0,0,.91s-.31.27-.41.34.17.24-.2.17-.24.2-.27.34-.14-.07-.31-.27S91.14,31.5,91,31.6a2.34,2.34,0,0,0-.27.51,1.27,1.27,0,0,0,.14.61h-.07a2.37,2.37,0,0,0,.4.17c.17,0-.1.17-.13.3a.22.22,0,0,0,0,.31c.1.1.51.5.51.67s0,.31.2.34.41.07.47.14a.27.27,0,0,0,.34,0c.14-.1,0-.58.07-.58s.27.31.34.34.37.17-.14.41a2.61,2.61,0,0,0-.78.44c0,.1.07.3-.13.3h-.51s-.07.24-.1.37-.14.07-.2,0a.17.17,0,0,0-.24.13,1.77,1.77,0,0,1-.41.51.1.1,0,0,1-.1,0v0a1.2,1.2,0,0,1-.34.11.72.72,0,0,0-.54.3c-.13.17-.4.14-.47.14s-.31.27-.51.27-.37.33-.44.44-.2.23-.27.33l-.07,0,0-.14.1-.47-.17.64h0v.07a1.59,1.59,0,0,1,0,.41.5.5,0,0,1-.27.47c-.31.2,0,.31.13.41s.24.1.14.34.24.37.24.37c.13.34-.31,1.05-.31,1.05a1.21,1.21,0,0,1-.24.88c-.16.1,0,.4-.06.4s-.31.38-.44.48-.21-.17-.21-.31a.64.64,0,0,0-.37-.37c-.1-.07-.4-.27-.47-.3a2,2,0,0,1-.2-.34v-.1a1.72,1.72,0,0,0-.14.33,10.87,10.87,0,0,0,.78,1.22c.07.17.44.34.61.38s.17.3.17.47v.07s.23,1,0,1.25-.24.3-.27.13a1.6,1.6,0,0,0-.17.38,3.62,3.62,0,0,0-.1.47c0,.07,0,.1-.07.17a2.5,2.5,0,0,0-.21.3s.17.44,0,.44-.31-.37-.27-.5a3.9,3.9,0,0,1,.06-.65,1.36,1.36,0,0,0,.17-.64c0-.1-.33,0-.33,0s-.07,0-.07-.1-.27-.58-.34-.51-.17.17-.27.07-.44-.1-.31-.58c.07-.17.14-.23.24-.17s.17-.06,0-.13-.71-.07-.6-.34.23-.64.17-.71-.24,0-.21-.14.17-.37.31-.4.2,0,.17-.2a1,1,0,0,1,.06-.44H85l0,.06a5.83,5.83,0,0,1-.54.51,2.13,2.13,0,0,0-.51.27c.14,0,0,.37.17.34s.17.44.17.81a2.07,2.07,0,0,0,.44.92l-.07.06c-.1.1.17.27.27.48s-.33,0-.47-.1h0l.17.16a4.2,4.2,0,0,0,.33.48l.51.3c.14.1,0,.14-.17.21a.45.45,0,0,0-.27.2h.41a.4.4,0,0,1,.3.2c.07.1.1.17-.1.24s.34.44.34.44c.1.37-.1,0-.2,0a4.85,4.85,0,0,0-.68-.13c-.27,0,.13.34.24.4s.34.07.44.27.33.17.57,0,.92,1.28.92,1.28l-.14.14s.2,0,.17,0,0,.17-.2.1-.54-.27-.58-.2a1.11,1.11,0,0,1-.37.24c-.07,0-.24.1-.27.2a.63.63,0,0,1-.31.27c-.1,0-.77.3-.71.47s.27.14.37.07.61-.41.68-.41.2.17.27.14.34-.14.38-.1.23.54.3.27.1-.51.24-.41a1.32,1.32,0,0,1,.33.51c0,.07-.16.14-.2.24s-.27.47-.44.47a1.3,1.3,0,0,0-.44.1c-.1,0-.2-.2-.2-.2s-.17-.17-.24,0,0,.2-.13.17-.58.06-.58.06.37.37.51.37.64-.2.54-.06a.7.7,0,0,0-.07.37c0,.07-.1.3-.17.3a1.85,1.85,0,0,0-.57-.1s-.1,0,0,.1a.63.63,0,0,0,.58.21c.24,0,.51-.37.58-.24s.23.24.13.34-.58.51-.88.47-.58-.13-.54,0,0,.21-.17.24a1.57,1.57,0,0,0-.78.88c-.07.37-.17.81-.34.88s-.84.27-.84.27-.58.61-.61.91A4.16,4.16,0,0,1,82,57.66a1.11,1.11,0,0,0-.54.57c-.1.34-.27.34-.31.44s-.23-.1-.4,0a.89.89,0,0,1-.48.1c-.16,0-.54,0-.47.51a1.8,1.8,0,0,1,0,.74l-.07.11c.41.13,0,.5-.2.5s-.24.07-.21.17,0,.48-.1.48-.44,0-.2.37-.27.34-.31.51.88.2.51.4a.64.64,0,0,0-.2.75.46.46,0,0,1,.07.17c0,.1-.31.27-.31.27s-.2.13-.17.3.1.61.1.61.11.17.14,0S78.86,64,79,64s.3.27.3.41a24.21,24.21,0,0,0,1.25,2.5c.21.27,1.83,2.51,1.83,3.42,0,.27.1.44.17.47a.56.56,0,0,1,.31.34A17.84,17.84,0,0,1,83,73.4c0,.06-.2.17-.2.23s.07.92,0,1-.47.41-.5.48-.14.17-.27.13-.24.14-.31.17-.51.07-.54-.13a1.36,1.36,0,0,0-.24-.71c-.13-.1-.57-.51-.71-.58a1,1,0,0,1-.47-.57c-.07-.21-.31-.92-.44-.92s-.17,0-.17-.07,0-.74-.2-.81-.24,0-.24.1.24.41.14.41-.44-.44-.51-.51-.65-1-.54-1.28.13-.07.2-.07-.2-.71-.31-.71-.13.34-.13.4a1.28,1.28,0,0,1-.2-.57,13.37,13.37,0,0,0-.17-2C77,67,76.93,67,76.83,67s-.27.1-.34-.17-.24-.21-.31-.21a.55.55,0,0,1-.4-.44c-.07-.4-.82-.88-1-.91s-1.09,0-1.09,0c-.1.17.07.17.07.37s-.2.1-.34.1S73.1,66,73,66a.52.52,0,0,0-.48.1c-.1.14-.4.1-.5.1s-.1-.3-.17-.47-.14-.24-.27-.27-.07-.17-.07-.38-.1,0-.24-.06-.23.06-.17.17-.2.1-.34,0a.92.92,0,0,0-.6-.14c-.38,0,0-.13.06-.2s.21-.17-.06-.24S69.14,65,69,65s-.27-.24-.27-.24c-.17-.14-.58.44-.68.54s-.47.2-.47.07l-.07.07a.38.38,0,0,1-.44.13c-.1,0,.07-.61.1-.78s-.3-.37-.41-.4,0,.78,0,.84-.13-.06-.13-.06-.27-.07-.34-.14-.3,0-.3,0L66,65v.1c.07.68,0,.24-.3.24s-.64-.17-.78,0-.44.44-.64.44h-.41l-.07,0c-.1.17-.37-.1-.61-.13s-.5.1-.74.57.81.11,1.05,0,.71-.17.61,0-.34.2-.21.47.34-.3.58-.51.41,0,.3,0a.43.43,0,0,0-.23.34c0,.17.13.24-.17.41s-.07.4.1.54.27,0,.34.17a1.44,1.44,0,0,0,.44.37c.2.14.2.24-.07.41s-.17-.11-.34-.14-.23.14-.3,0a.67.67,0,0,0-.44-.3c-.21,0-.24-.14-.54-.48s-.24.27-.27.65-.21.06-.34,0-.17-.17-.21,0a.27.27,0,0,1-.4.13c-.24-.13-.17,0-.2.17s-.24.07-.34,0-.51-.17-.75-.2-.3-.17-.17-.21a.7.7,0,0,0,.44-.4c.07-.24-.13-.31-.4-.24s-.34-.2-.54-.44-.31-.07-.51,0-.07.3-.17.3a1.93,1.93,0,0,0-.65.24,1.73,1.73,0,0,1-1.35-.17,2.54,2.54,0,0,0-1.12-.3s-.1,0-.16,0l-.17,0a1.31,1.31,0,0,1-.21.24c-.2.2-1,1-1.22.78s.24-.24,0-.21-.3.21-.23-.23-.14-.44-.24-.17,0,.5-.2.37l-.14-.1s0,.1.07.2c.17.51.14.75-.07.91s-.23.51-.91.44c0,0-.1,0-.24.24s-.17.14-.37.27-.61.61-.71.34.34-.54.07-.41-.34.21-.31-.06-.07-.07-.2.06-.27-.27-.24,0,.1.58-.23.51a.33.33,0,0,1-.14,0,.84.84,0,0,1,0,.21c-.11.37-.24.2-.41.37s-.41.13-.34.3-.07.38-.2.38-.07.2,0,.5,0,1-.1,1-.24-.14-.07.13.13.37,0,.54a.7.7,0,0,0-.07.71c.07.38.61,1.53.27,1.46s-.81-.41-1.08-.37a5.81,5.81,0,0,1-1-.34.73.73,0,0,1-.61-.27c-.2-.27-.23-.17-.37-.17s-.17-.1-.37-.14-.2-.07-.2-.34.1-.5-.1-.57-.55-.27-.51-.61.3-.31.17-.41a.27.27,0,0,1-.07-.37c.07-.13-.2-.27-.34-.27a.39.39,0,0,1-.37-.37.79.79,0,0,0-.34-.65c-.2-.16-.1-.33-.44-.5s-.34-1-.54-1.09a1.14,1.14,0,0,1-.61-.91c0-.54-.34-.37-.47-.71s-.11-.3-.44-.37-.27-.44-.58-.34-.61.34-.91.24-.41-.48-.61-.31-.2.31-.41.31-.17.2-.23.47a1.72,1.72,0,0,1-.41.61c-.1.17-.31.47-.64.34s-.48-.51-.68-.61a1.75,1.75,0,0,1-.71-.44c-.34-.31-.88-.51-.91-1.12s.06-1.15-.31-1.39a1.75,1.75,0,0,0-.78-.44c-.24,0-.2,0-.34-.44s-.5-.33-.61-.54-.13-.44-.4-.61-.2-.37-.44-.47-.1-.24-.2-.34a1.77,1.77,0,0,1-.38-.57l0,.27-3.35-.1,0,.67-1.52,0s-.61,0-1.35,0A6.49,6.49,0,0,1,24.1,62c-.78-.38-6.5-3.69-6.5-3.69a2.42,2.42,0,0,1,.07-.78l-.1.1c-.17,0-4.13-.3-4.13-.3s0-.48-.2-.61a.88.88,0,0,0,.3-.72c0-.54-.1-.37-.3-.6s-.14-.75-.44-.75-1,.14-.75-.2.21-.61-.1-.68-.47.17-.74-.1-.21-.24-.44-.34,0-.4-.21-.54-.4-.54-.81-.57-1.25-.41-1.28-.78.2-1,0-1.36-.3-.27-.27-.61-.2-.34-.37-.61a2.56,2.56,0,0,1-.17-.77c-.07-.34-.51-.75-.61-1.15s0-.41.17-.38.3.07.3-.23.07-.61-.27-.65-.34,0-.4-.4-.14-2,.13-1.39.41.88.48.64,0-.88.17-.78.3-.16.1-.27-.34.21-.41,0-.27-.44-.37-.27-.1.34-.34.1-.71-.5-.41-.54.34-.1.17-.47-.44-.44-.44-.95a4.44,4.44,0,0,0-.23-1c0-.3.13-.58.1-1s-.1-.41,0-.54.07-.58-.13-.82-.27-.91-.07-1,.54-.44.54-.65.14-.06.2-.17a2.2,2.2,0,0,1,.21-.67c.13-.24.3-.31.3-.68s.17-.44,0-.64.14-.34.24-.38a.13.13,0,0,0-.07,0,9.68,9.68,0,0,1-.17-1.59c.07-.14.17-.2.17-.44s0-.24.17-.34,0-.37.2-.47.44-.24.41-.37-.1-.31.1-.41.61-.17.51-.41-.27-.27,0-.5.44-.38.47-.61a1.92,1.92,0,0,1,.21-.58c.13-.2.13-.74.3-.88a1.82,1.82,0,0,0,.61-1,2.44,2.44,0,0,1,.17-1c.14-.24.1-.64.2-.54a.44.44,0,0,0,.41.27,2.43,2.43,0,0,1,.54,0l.1,0,.11-.1a2.38,2.38,0,0,0-.89-.37c-.2,0-.71-.37-.23-1.62,0,0,.17-.75.34.1.1.61.57-.17.61-.44a.88.88,0,0,0-.41-.14c-.2,0,.1-.3.3-.37s.07-.44-.1-.44-.67,0-.61-.2a1.35,1.35,0,0,0,.1-1.22s0-1.05.78,0a1.63,1.63,0,0,0,.82.47.92.92,0,0,1,.74.61.69.69,0,0,1-.07.78c-.3.5.37.1.75-.14a1.38,1.38,0,0,0,.67-1.49,2.64,2.64,0,0,1-.13-1.08l0-.07L22,21.69l1.21.33v0a75.09,75.09,0,0,0,16.89,3.18v.17a1.08,1.08,0,0,1,0-.17s8.25.51,9.61.4v.07l0-.1,3.11,0,0-.41h.54v.51s.24.51.41.51.61-.07.67.1a.42.42,0,0,0,.51.13,1.84,1.84,0,0,1,.81,0,1.1,1.1,0,0,0,.71.21c.28,0,.85-.11,1,.06s.34.24.44.07.58,0,.68.14a.4.4,0,0,0,.47.3,1.28,1.28,0,0,1,.75,0c.2.1,1,.06,1,.2s-3.11,2.74-3.15,2.81a.09.09,0,0,1,0,.06l.17-.06c.27-.1.54-.17.61-.21s.67-.33.71-.13-.27.68,0,.71c0,0,.54-.07.92-.14a1.16,1.16,0,0,0,.3-.1c.17-.07.58-.27.78-.37a2.92,2.92,0,0,0,.64-.44,2.83,2.83,0,0,0,.65-.81c0-.14.91-.41,1.15-.48a5.37,5.37,0,0,1-.44.41c-.14.07-.17.2-.24.34s-.17.37-.07.51.78-.1,1-.17.17.3.44.57a.41.41,0,0,0,.54,0c-.1.21.14.24.28.21s.23.2.44.16a5.55,5.55,0,0,0,.88-.67c.16-.14.71-.14.91-.17s.44-.27.61-.41,0,.38,0,.54.41.21.58.24a.76.76,0,0,0,.44-.07c.17,0,.54.58.68.75s.27.07.2.23-.37.21-.64.21-.27-.14-.44-.27-.27.13-.38.3-.27-.1-.47-.24-.34,0-.44.21-.24.3-.44.27a.43.43,0,0,0-.41,0,4,4,0,0,0-.67.75.79.79,0,0,0-.07-.31c0-.17-.17,0-.34.1s-.17-.23-.17-.23l-.17.74a2,2,0,0,1-.37.75c-.1,0-.24.27-.3.47l0,.17c0,.2-.2.78-.2.78v.07c.13,0,1.12-1.56,1.22-1.56,0,.17-.65,2.23-.65,2.54s0,3.21,0,3.45v0l.1.31s.68,1.38.71,1.52v0c.07,0,1-.13,1.32-.61h0a3.28,3.28,0,0,0,.23-.81,5.54,5.54,0,0,0-.44-3.25,1.65,1.65,0,0,1-.1-1.08,7.17,7.17,0,0,0,.34-1.49c0-.13.71-.84.68-.68s-.27.61-.1.65.4-.21.47-.81c0-.31.34-.14.41-.14s-.61-.74-.31-.88a1.46,1.46,0,0,1,1.08.07,2.28,2.28,0,0,0,.82.23c.13,0,1.15.17,1,.48s-.4.2-.13.44.44.37.4.68.1.74-.23,1-.75.5-.58,1,.34.57.51.57.17-.33.1-.4.3-.85.37-.88.44-.17.61,0,.71.78.71,1.22,0,.54.14.71.5.47.23.68a1.65,1.65,0,0,0-.84,1.69c0,.34,0,.2-.07.24s-.1.3-.1.44a1.1,1.1,0,0,0,.54.17c.44,0,.74,0,.88.1a.62.62,0,0,0,.91-.17c.27-.44.14-.24.34-.24s.44-.1.51-.3a1.94,1.94,0,0,1,.51-.65c.17-.06,1-.61,1-.61l.61-.54,0,0a5.43,5.43,0,0,0,.92-.78c.34-.34.2-1.12.2-1.22s-.17-.68-.2-.78-.1-.27.3-.13a2,2,0,0,0,1.15-.24,1.87,1.87,0,0,0,2-.27.93.93,0,0,0,.47-.58.43.43,0,0,0,0-.54.87.87,0,0,1-.1-.54c0-.14-.06-.1-.23-.17s-.07-.07.06-.2a4,4,0,0,0,.61-1,1.19,1.19,0,0,1,.41-.61.9.9,0,0,0,.4-.48,1.75,1.75,0,0,1,.24-.37l2.24-.61,2.26-.71s.14-.81.31-.88a2.12,2.12,0,0,1,.34-.13c.3-.07.37-.58.44-.75a.46.46,0,0,1,.17-.27,11.42,11.42,0,0,1,0-2A3.83,3.83,0,0,1,89.58,23c.11-.24.14-.47.28-.57s.13.33.54.33.37-.91.47-1,.34.17.41.24a1.9,1.9,0,0,0,.61.17s.77,2.13.94,2.5.14.38.51.51a.7.7,0,0,1,.44.58.46.46,0,0,0,.58.3c.23-.07.37-.1.37,0S94.9,26.42,94.8,26.56Z"/></svg>