<svg id="Layer_1" data-name="Layer 1" xmlns="http://www.w3.org/2000/svg" viewBox="0 0 100 100"><defs><style>.cls-1{fill:#fff;}</style></defs><title>edm-icons</title><path class="cls-1" d="M24.21,69.14v3.45a.06.06,0,0,1-.05.06h-10a.06.06,0,0,1-.05-.06V69.14a.06.06,0,0,1,.05-.06H15l.86-33.92h-.75s0,0,0-.06V31.65s0-.06,0-.06h8.14a.06.06,0,0,1,.05.06V35.1a.06.06,0,0,1-.05.06h-.74l.86,33.92h.81A.06.06,0,0,1,24.21,69.14Z"/><path class="cls-1" d="M45.12,69.14v3.45a.06.06,0,0,1,0,.06h-10a.06.06,0,0,1,0-.06V69.14a.06.06,0,0,1,0-.06h.82l.86-33.92H36s0,0,0-.06V31.65s0-.06,0-.06h8.14a.06.06,0,0,1,0,.06V35.1a.06.06,0,0,1,0,.06h-.75l.87,33.92h.81A.06.06,0,0,1,45.12,69.14Z"/><path class="cls-1" d="M66,69.14v3.45a.06.06,0,0,1,0,.06H56a.06.06,0,0,1,0-.06V69.14a.06.06,0,0,1,0-.06h.82l.86-33.92h-.75s0,0,0-.06V31.65s0-.06,0-.06h8.14a.06.06,0,0,1,0,.06V35.1a.06.06,0,0,1,0,.06H64.3l.87,33.92H66A.06.06,0,0,1,66,69.14Z"/><path class="cls-1" d="M86.94,69.14v3.45s0,.06,0,.06h-10a.06.06,0,0,1,0-.06V69.14a.06.06,0,0,1,0-.06h.82l.86-33.92h-.75s0,0,0-.06V31.65s0-.06,0-.06H86a.06.06,0,0,1,.05.06V35.1a.06.06,0,0,1-.05.06h-.75l.87,33.92h.82S86.94,69.11,86.94,69.14Z"/><rect class="cls-1" x="10.85" y="73.5" width="79.21" height="2.22" rx="0.06" ry="0.06"/><rect class="cls-1" x="8.18" y="76.58" width="84.54" height="2.22" rx="0.06" ry="0.06"/><rect class="cls-1" x="5.23" y="79.81" width="90.43" height="2.22" rx="0.06" ry="0.06"/><path class="cls-1" d="M92.42,23.08a.07.07,0,0,0-.06-.07L50.3,14.18h-.11L8.54,23s-.06,0-.06.07v4.33a.06.06,0,0,0,.06.06H92.36a.06.06,0,0,0,.06-.06Z"/><rect class="cls-1" x="15.27" y="28.44" width="70.76" height="2.19"/></svg>